<svg width="53" height="51" viewBox="0 0 53 51" fill="none" xmlns="http://www.w3.org/2000/svg">
<path fill-rule="evenodd" clip-rule="evenodd" d="M9.76217 34.6232C8.97948 32.5682 8.71953 30.2451 8.98231 27.6541C8.99152 27.5632 9.00137 27.4721 9.01186 27.3806C9.13349 26.3205 9.3466 25.2135 9.6512 24.0595C9.65362 24.0504 9.65604 24.0412 9.65847 24.0321C9.69704 23.8866 9.73705 23.7403 9.77852 23.5933C10.7524 20.3239 12.2445 17.5172 14.2549 15.1734C14.2561 15.172 14.2573 15.1706 14.2584 15.1693C14.3536 15.0584 14.4499 14.9486 14.5473 14.8398C16.7032 12.4017 19.1664 10.6405 21.937 9.55622C21.9403 9.55492 21.9436 9.55363 21.9469 9.55234C21.9526 9.55011 21.9583 9.54789 21.964 9.54566C24.7863 8.43006 27.6727 8.04151 30.6233 8.38003C30.7517 8.39475 30.8791 8.41042 31.0055 8.42703C34.5006 8.88643 37.2257 10.0653 39.1806 11.9637C39.3084 12.0852 39.4327 12.2088 39.5536 12.3343C41.353 14.2035 42.3882 16.5197 42.6591 19.2829L45.5005 19.6088C45.4821 19.4074 45.4609 19.2079 45.4367 19.0106C45.1769 16.8906 44.5796 15.006 43.6448 13.3566C43.0392 12.288 42.2919 11.3182 41.403 10.4471C41.2751 10.3218 41.1443 10.1991 41.0108 10.079C41.004 10.073 40.9972 10.0669 40.9905 10.0608C38.6308 7.9493 35.3883 6.65689 31.2628 6.1836C31.1351 6.16894 31.0075 6.15546 30.88 6.14314C27.5699 5.82345 24.3388 6.29229 21.1867 7.54966C21.1833 7.551 21.18 7.55234 21.1766 7.55367C21.1641 7.55868 21.1515 7.56371 21.139 7.56874C18.0182 8.83985 15.2642 10.7648 12.877 13.3435C12.8738 13.3471 12.8705 13.3506 12.8672 13.3542C12.77 13.4593 12.6734 13.5655 12.5775 13.6727C10.2545 16.2819 8.52744 19.3523 7.39641 22.8838C7.39274 22.8953 7.38908 22.9067 7.38543 22.9182C7.3445 23.0465 7.30437 23.1754 7.26501 23.305C6.88562 24.5047 6.61238 25.7651 6.44529 27.0862C6.43381 27.1769 6.42284 27.2679 6.41236 27.3592C6.06549 30.3827 6.3776 33.1312 7.34867 35.6047C7.36718 35.6502 7.38588 35.6955 7.40477 35.7407C7.40729 35.7468 7.40982 35.7528 7.41235 35.7588C8.42205 38.1665 9.97683 40.1413 12.0767 41.6832C12.2018 41.7715 12.3283 41.8579 12.4562 41.9423C12.4659 41.9487 12.4756 41.9551 12.4854 41.9615C14.5843 43.3397 17.0524 44.1916 19.8896 44.5171C20.0175 44.5318 20.1451 44.5456 20.2724 44.5584C24.3464 44.9691 28.0754 44.4331 31.4595 42.9504C31.4621 42.9493 31.4646 42.9482 31.4672 42.9471C31.5868 42.8946 31.7059 42.841 31.8247 42.7862C33.9482 41.8057 35.8683 40.5105 37.585 38.9007C38.4454 38.0939 39.2547 37.2081 40.0129 36.2432C40.2961 35.8828 40.5722 35.5114 40.8412 35.1289L38.0544 34.8092C36.1603 37.3961 33.7721 39.3801 30.8897 40.7612C30.7751 40.8161 30.6598 40.87 30.5437 40.923C27.5465 42.2769 24.2083 42.7428 20.5291 42.3207C20.4008 42.306 20.2735 42.2901 20.1471 42.2729C17.7238 41.9445 15.6351 41.171 13.8807 39.9525C13.7637 39.8687 13.6487 39.7833 13.5356 39.6963C13.5234 39.6869 13.5112 39.6775 13.4991 39.6681C11.851 38.3894 10.6259 36.7605 9.82364 34.7814C9.80667 34.7386 9.78994 34.6957 9.77343 34.6527C9.76966 34.6429 9.76591 34.6331 9.76217 34.6232ZM15.3928 32.5486C15.8293 33.6155 16.4586 34.41 17.3385 35.0487C18.247 35.6706 19.4765 36.1606 21.213 36.3598C23.9495 36.6737 26.1759 36.3099 28.0634 35.4597C30.1636 34.4993 31.854 33.1212 33.2134 31.2646L35.2736 28.4508L51.5585 30.3191L45.7491 38.5803C42.7583 42.8334 38.9499 46.1049 34.3399 48.2335C29.6443 50.4016 24.542 51.0902 19.2057 50.478C15.3222 50.0325 11.7312 48.7835 8.61656 46.585L8.57072 46.5526L8.52548 46.5194C5.48172 44.2844 3.2137 41.3644 1.79063 37.8648L1.77695 37.8311L1.76367 37.7973C0.384787 34.2851 0.00910987 30.5311 0.451464 26.6754C0.654161 24.9085 1.01107 23.1898 1.53378 21.5291C2.89626 17.0591 5.07266 13.079 8.09618 9.68298L8.101 9.67757L8.10582 9.67218C11.1391 6.28166 14.7374 3.69755 18.8757 2.01199L18.8895 2.00636L18.9033 2.00081C23.1006 0.315523 27.4776 -0.290019 31.9467 0.222699C37.2244 0.828177 41.9977 2.62934 45.6024 6.16173C49.1418 9.63009 51.0217 14.0773 51.4758 19.0649L52.1444 26.4104L37.1606 24.6914L36.6877 19.8683C36.5304 18.2634 35.9679 17.1885 35.0456 16.3113L35.0231 16.2899L35.0008 16.2682C34.1849 15.4759 32.7134 14.6592 29.9395 14.3409C27.9907 14.1174 26.0955 14.3643 24.1697 15.1255L24.1557 15.1311L24.1415 15.1366C22.3314 15.8416 20.6328 17.0154 19.0421 18.8143L19.0292 18.8289L19.0163 18.8434C17.516 20.5181 16.3356 22.617 15.5413 25.2646C15.2508 26.3017 15.0682 27.2328 14.9728 28.0645C14.7472 30.0302 14.969 31.4688 15.3928 32.5486Z" fill="black"/>
</svg>
