<svg width="45" height="44" viewBox="0 0 45 44" fill="none" xmlns="http://www.w3.org/2000/svg">
<path d="M10.4584 21.1466C11.2549 18.4806 12.4718 16.2755 14.0812 14.479L14.0866 14.473L14.0919 14.4669C15.7411 12.6018 17.5764 11.3079 19.5992 10.5201L19.5992 10.5201L19.6109 10.5155C21.7004 9.68951 23.8065 9.40943 25.9641 9.65696C28.7979 9.98206 30.7119 10.8672 31.9757 12.0944L31.985 12.1034L31.9943 12.1123C33.3044 13.3583 34.0675 14.9189 34.2649 16.9324L34.462 18.942L36.4681 19.1722L38.9478 19.4567L42.0011 19.8069L41.7225 16.7463C41.3769 12.9502 39.9707 9.70441 37.4065 7.19169C34.8152 4.65229 31.2848 3.25366 27.0921 2.77267C23.6517 2.37797 20.289 2.84085 17.0403 4.14525L17.0403 4.14523L17.0288 4.14991C13.8213 5.45634 11.0205 7.46098 8.63679 10.1254L8.63678 10.1254L8.63277 10.1299C6.27161 12.782 4.5572 15.9047 3.47566 19.4586C3.07292 20.7354 2.79459 22.0679 2.6358 23.452C2.29329 26.4374 2.59216 29.2551 3.60957 31.8465L3.6151 31.8606L3.6208 31.8747C4.67323 34.4628 6.33699 36.6035 8.58325 38.2529L8.60209 38.2667L8.6212 38.2802C10.9155 39.8997 13.5995 40.851 16.5965 41.1948C20.8135 41.6786 24.7539 41.1285 28.3455 39.4702C31.9015 37.8283 34.859 35.3011 37.2114 31.9558L39.632 28.5137L35.4514 28.034L33.0193 27.755L31.5757 27.5894L30.7173 28.7618C29.2527 30.7621 27.4066 32.2657 25.146 33.298C22.9928 34.2697 20.5429 34.6338 17.7245 34.3105C15.8197 34.092 14.2974 33.5272 13.0781 32.6842C11.8714 31.8165 10.9928 30.7 10.4171 29.2841C9.84916 27.8474 9.63293 26.1233 9.87187 24.0406C9.97449 23.1461 10.1671 22.1824 10.4584 21.1466Z" fill="black" stroke="white" stroke-width="5"/>
</svg>
