<svg width="364" height="167" viewBox="0 0 364 167" fill="none" xmlns="http://www.w3.org/2000/svg">
<path d="M0 94.2895C0 93.1849 0.89543 92.2895 2 92.2895H2.39474C3.49931 92.2895 4.39474 93.1849 4.39474 94.2895V167H0V94.2895Z" fill="url(#paint0_linear_62_419)"/>
<path d="M7.6908 111.868C7.6908 110.764 8.58623 109.868 9.6908 109.868H10.0855C11.1901 109.868 12.0855 110.764 12.0855 111.868V167H7.6908V111.868Z" fill="url(#paint1_linear_62_419)"/>
<path d="M14.2828 66.8224C14.2828 65.7178 15.1783 64.8224 16.2828 64.8224H16.6776C17.7821 64.8224 18.6776 65.7178 18.6776 66.8224V167H14.2828V66.8224Z" fill="url(#paint2_linear_62_419)"/>
<path d="M21.9736 89.8947C21.9736 88.7901 22.8691 87.8947 23.9736 87.8947H24.3684C25.4729 87.8947 26.3684 88.7901 26.3684 89.8947V167H21.9736V89.8947Z" fill="url(#paint3_linear_62_419)"/>
<path d="M29.6644 94.2895C29.6644 93.1849 30.5599 92.2895 31.6644 92.2895H32.0592C33.1637 92.2895 34.0592 93.1849 34.0592 94.2895V167H29.6644V94.2895Z" fill="url(#paint4_linear_62_419)"/>
<path d="M36.2566 76.7105C36.2566 75.6059 37.152 74.7105 38.2566 74.7105H38.6513C39.7559 74.7105 40.6513 75.6059 40.6513 76.7105V167H36.2566V76.7105Z" fill="url(#paint5_linear_62_419)"/>
<path d="M43.9474 28.3684C43.9474 27.2638 44.8428 26.3684 45.9474 26.3684H46.3421C47.4467 26.3684 48.3421 27.2638 48.3421 28.3684V167H43.9474V28.3684Z" fill="url(#paint6_linear_62_419)"/>
<path d="M51.6382 45.9474C51.6382 44.8428 52.5336 43.9474 53.6382 43.9474H54.0329C55.1375 43.9474 56.0329 44.8428 56.0329 45.9474V167H51.6382V45.9474Z" fill="url(#paint7_linear_62_419)"/>
<path d="M58.2302 72.3158C58.2302 71.2112 59.1257 70.3158 60.2302 70.3158H60.625C61.7295 70.3158 62.625 71.2112 62.625 72.3158V167H58.2302V72.3158Z" fill="url(#paint8_linear_62_419)"/>
<path d="M65.921 31.6645C65.921 30.5599 66.8165 29.6645 67.921 29.6645H68.3158C69.4203 29.6645 70.3158 30.5599 70.3158 31.6645V167H65.921V31.6645Z" fill="url(#paint9_linear_62_419)"/>
<path d="M73.6118 44.8487C73.6118 43.7441 74.5072 42.8487 75.6118 42.8487H76.0066C77.1111 42.8487 78.0066 43.7441 78.0066 44.8487V167H73.6118V44.8487Z" fill="url(#paint10_linear_62_419)"/>
<path d="M80.204 45.9474C80.204 44.8428 81.0994 43.9474 82.204 43.9474H82.5987C83.7033 43.9474 84.5987 44.8428 84.5987 45.9474V167H80.204V45.9474Z" fill="url(#paint11_linear_62_419)"/>
<path d="M87.8947 72.3158C87.8947 71.2112 88.7901 70.3158 89.8947 70.3158H90.2895C91.394 70.3158 92.2895 71.2112 92.2895 72.3158V167H87.8947V72.3158Z" fill="url(#paint12_linear_62_419)"/>
<path d="M95.5855 55.8355C95.5855 54.7309 96.4809 53.8355 97.5855 53.8355H97.9802C99.0848 53.8355 99.9802 54.7309 99.9802 55.8355V167H95.5855V55.8355Z" fill="url(#paint13_linear_62_419)"/>
<path d="M102.178 89.8947C102.178 88.7901 103.073 87.8947 104.178 87.8947H104.572C105.677 87.8947 106.572 88.7901 106.572 89.8947V167H102.178V89.8947Z" fill="url(#paint14_linear_62_419)"/>
<path d="M109.868 62.4276C109.868 61.323 110.764 60.4276 111.868 60.4276H112.263C113.368 60.4276 114.263 61.323 114.263 62.4276V167H109.868V62.4276Z" fill="url(#paint15_linear_62_419)"/>
<path d="M117.559 37.1579C117.559 36.0533 118.455 35.1579 119.559 35.1579H119.954C121.059 35.1579 121.954 36.0533 121.954 37.1579V167H117.559V37.1579Z" fill="url(#paint16_linear_62_419)"/>
<path d="M124.151 55.8355C124.151 54.7309 125.047 53.8355 126.151 53.8355H126.546C127.651 53.8355 128.546 54.7309 128.546 55.8355V167H124.151V55.8355Z" fill="url(#paint17_linear_62_419)"/>
<path d="M131.842 62.4276C131.842 61.323 132.738 60.4276 133.842 60.4276H134.237C135.341 60.4276 136.237 61.323 136.237 62.4276V167H131.842V62.4276Z" fill="url(#paint18_linear_62_419)"/>
<path d="M139.533 69.0197C139.533 67.9151 140.428 67.0197 141.533 67.0197H141.928C143.032 67.0197 143.928 67.9151 143.928 69.0197V167H139.533V69.0197Z" fill="url(#paint19_linear_62_419)"/>
<path d="M146.125 51.4408C146.125 50.3362 147.02 49.4408 148.125 49.4408H148.52C149.624 49.4408 150.52 50.3362 150.52 51.4408V167H146.125V51.4408Z" fill="url(#paint20_linear_62_419)"/>
<path d="M153.816 32.7632C153.816 31.6586 154.711 30.7632 155.816 30.7632H156.211C157.315 30.7632 158.211 31.6586 158.211 32.7632V167H153.816V32.7632Z" fill="url(#paint21_linear_62_419)"/>
<path d="M161.507 2C161.507 0.895433 162.402 0 163.507 0H163.901C165.006 0 165.901 0.895431 165.901 2V167H161.507V2Z" fill="url(#paint22_linear_62_419)"/>
<path d="M168.099 55.8355C168.099 54.7309 168.994 53.8355 170.099 53.8355H170.493C171.598 53.8355 172.493 54.7309 172.493 55.8355V167H168.099V55.8355Z" fill="url(#paint23_linear_62_419)"/>
<path d="M175.789 37.1579C175.789 36.0533 176.685 35.1579 177.789 35.1579H178.184C179.289 35.1579 180.184 36.0533 180.184 37.1579V167H175.789V37.1579Z" fill="url(#paint24_linear_62_419)"/>
<path d="M183.48 64.625C183.48 63.5204 184.376 62.625 185.48 62.625H185.875C186.98 62.625 187.875 63.5204 187.875 64.625V167H183.48V64.625Z" fill="url(#paint25_linear_62_419)"/>
<path d="M190.072 111.868C190.072 110.764 190.968 109.868 192.072 109.868H192.467C193.572 109.868 194.467 110.764 194.467 111.868V167H190.072V111.868Z" fill="url(#paint26_linear_62_419)"/>
<path d="M197.763 44.8487C197.763 43.7441 198.659 42.8487 199.763 42.8487H200.158C201.262 42.8487 202.158 43.7441 202.158 44.8487V167H197.763V44.8487Z" fill="url(#paint27_linear_62_419)"/>
<path d="M205.454 81.1053C205.454 80.0007 206.349 79.1053 207.454 79.1053H207.849C208.953 79.1053 209.849 80.0007 209.849 81.1053V167H205.454V81.1053Z" fill="url(#paint28_linear_62_419)"/>
<path d="M212.046 51.4408C212.046 50.3362 212.941 49.4408 214.046 49.4408H214.441C215.545 49.4408 216.441 50.3362 216.441 51.4408V167H212.046V51.4408Z" fill="url(#paint29_linear_62_419)"/>
<path d="M219.737 72.3158C219.737 71.2112 220.632 70.3158 221.737 70.3158H222.132C223.236 70.3158 224.132 71.2112 224.132 72.3158V167H219.737V72.3158Z" fill="url(#paint30_linear_62_419)"/>
<path d="M227.428 89.8947C227.428 88.7901 228.323 87.8947 229.428 87.8947H229.822C230.927 87.8947 231.822 88.7901 231.822 89.8947V167H227.428V89.8947Z" fill="url(#paint31_linear_62_419)"/>
<path d="M234.02 64.625C234.02 63.5204 234.915 62.625 236.02 62.625H236.414C237.519 62.625 238.414 63.5204 238.414 64.625V167H234.02V64.625Z" fill="url(#paint32_linear_62_419)"/>
<path d="M241.711 116.263C241.711 115.159 242.606 114.263 243.711 114.263H244.105C245.21 114.263 246.105 115.159 246.105 116.263V167H241.711V116.263Z" fill="url(#paint33_linear_62_419)"/>
<path d="M249.401 73.4145C249.401 72.3099 250.297 71.4145 251.401 71.4145H251.796C252.901 71.4145 253.796 72.3099 253.796 73.4145V167H249.401V73.4145Z" fill="url(#paint34_linear_62_419)"/>
<path d="M255.993 89.8947C255.993 88.7901 256.889 87.8947 257.993 87.8947H258.388C259.493 87.8947 260.388 88.7901 260.388 89.8947V167H255.993V89.8947Z" fill="url(#paint35_linear_62_419)"/>
<path d="M263.684 22.875C263.684 21.7704 264.58 20.875 265.684 20.875H266.079C267.184 20.875 268.079 21.7704 268.079 22.875V167H263.684V22.875Z" fill="url(#paint36_linear_62_419)"/>
<path d="M271.375 60.2303C271.375 59.1257 272.27 58.2303 273.375 58.2303H273.77C274.874 58.2303 275.77 59.1257 275.77 60.2303V167H271.375V60.2303Z" fill="url(#paint37_linear_62_419)"/>
<path d="M277.967 76.7105C277.967 75.6059 278.863 74.7105 279.967 74.7105H280.362C281.466 74.7105 282.362 75.6059 282.362 76.7105V167H277.967V76.7105Z" fill="url(#paint38_linear_62_419)"/>
<path d="M285.658 55.8355C285.658 54.7309 286.553 53.8355 287.658 53.8355H288.053C289.157 53.8355 290.053 54.7309 290.053 55.8355V167H285.658V55.8355Z" fill="url(#paint39_linear_62_419)"/>
<path d="M293.349 89.8947C293.349 88.7901 294.244 87.8947 295.349 87.8947H295.743C296.848 87.8947 297.743 88.7901 297.743 89.8947V167H293.349V89.8947Z" fill="url(#paint40_linear_62_419)"/>
<path d="M299.941 84.4013C299.941 83.2967 300.836 82.4013 301.941 82.4013H302.336C303.44 82.4013 304.336 83.2967 304.336 84.4013V167H299.941V84.4013Z" fill="url(#paint41_linear_62_419)"/>
<path d="M307.632 85.5C307.632 84.3954 308.527 83.5 309.632 83.5H310.026C311.131 83.5 312.026 84.3954 312.026 85.5V167H307.632V85.5Z" fill="url(#paint42_linear_62_419)"/>
<path d="M315.322 53.6382C315.322 52.5336 316.218 51.6382 317.322 51.6382H317.717C318.822 51.6382 319.717 52.5336 319.717 53.6382V167H315.322V53.6382Z" fill="url(#paint43_linear_62_419)"/>
<path d="M321.914 71.2171C321.914 70.1125 322.81 69.2171 323.914 69.2171H324.309C325.414 69.2171 326.309 70.1125 326.309 71.2171V167H321.914V71.2171Z" fill="url(#paint44_linear_62_419)"/>
<path d="M329.605 84.4013C329.605 83.2967 330.501 82.4013 331.605 82.4013H332C333.105 82.4013 334 83.2967 334 84.4013V167H329.605V84.4013Z" fill="url(#paint45_linear_62_419)"/>
<path d="M337.296 94.2895C337.296 93.1849 338.191 92.2895 339.296 92.2895H339.691C340.795 92.2895 341.691 93.1849 341.691 94.2895V167H337.296V94.2895Z" fill="url(#paint46_linear_62_419)"/>
<path d="M343.888 94.2895C343.888 93.1849 344.784 92.2895 345.888 92.2895H346.283C347.387 92.2895 348.283 93.1849 348.283 94.2895V167H343.888V94.2895Z" fill="url(#paint47_linear_62_419)"/>
<path d="M351.579 98.6842C351.579 97.5796 352.474 96.6842 353.579 96.6842H353.974C355.078 96.6842 355.974 97.5796 355.974 98.6842V167H351.579V98.6842Z" fill="url(#paint48_linear_62_419)"/>
<path d="M359.27 119.559C359.27 118.455 360.165 117.559 361.27 117.559H361.665C362.769 117.559 363.665 118.455 363.665 119.559V167H359.27V119.559Z" fill="url(#paint49_linear_62_419)"/>
<defs>
<linearGradient id="paint0_linear_62_419" x1="4.47654" y1="207.979" x2="69.0568" y2="161.371" gradientUnits="userSpaceOnUse">
<stop stop-color="#BC78FF" stop-opacity="0.48"/>
<stop offset="1" stop-color="#FF0000" stop-opacity="0.92"/>
</linearGradient>
<linearGradient id="paint1_linear_62_419" x1="12.1673" y1="198.337" x2="64.115" y2="149.31" gradientUnits="userSpaceOnUse">
<stop stop-color="#BC78FF" stop-opacity="0.48"/>
<stop offset="1" stop-color="#FF0000" stop-opacity="0.92"/>
</linearGradient>
<linearGradient id="paint2_linear_62_419" x1="18.7594" y1="223.044" x2="95.5838" y2="182.504" gradientUnits="userSpaceOnUse">
<stop stop-color="#BC78FF" stop-opacity="0.48"/>
<stop offset="1" stop-color="#FF0000" stop-opacity="0.92"/>
</linearGradient>
<linearGradient id="paint3_linear_62_419" x1="26.4502" y1="210.389" x2="93.5114" y2="164.68" gradientUnits="userSpaceOnUse">
<stop stop-color="#BC78FF" stop-opacity="0.48"/>
<stop offset="1" stop-color="#FF0000" stop-opacity="0.92"/>
</linearGradient>
<linearGradient id="paint4_linear_62_419" x1="34.141" y1="207.979" x2="98.7212" y2="161.371" gradientUnits="userSpaceOnUse">
<stop stop-color="#BC78FF" stop-opacity="0.48"/>
<stop offset="1" stop-color="#FF0000" stop-opacity="0.92"/>
</linearGradient>
<linearGradient id="paint5_linear_62_419" x1="40.7331" y1="217.621" x2="113.957" y2="174.841" gradientUnits="userSpaceOnUse">
<stop stop-color="#BC78FF" stop-opacity="0.48"/>
<stop offset="1" stop-color="#FF0000" stop-opacity="0.92"/>
</linearGradient>
<linearGradient id="paint6_linear_62_419" x1="48.4239" y1="244.136" x2="134.054" y2="211.305" gradientUnits="userSpaceOnUse">
<stop stop-color="#BC78FF" stop-opacity="0.48"/>
<stop offset="1" stop-color="#FF0000" stop-opacity="0.92"/>
</linearGradient>
<linearGradient id="paint7_linear_62_419" x1="56.1147" y1="234.494" x2="138.512" y2="198.39" gradientUnits="userSpaceOnUse">
<stop stop-color="#BC78FF" stop-opacity="0.48"/>
<stop offset="1" stop-color="#FF0000" stop-opacity="0.92"/>
</linearGradient>
<linearGradient id="paint8_linear_62_419" x1="62.7068" y1="220.031" x2="137.624" y2="178.251" gradientUnits="userSpaceOnUse">
<stop stop-color="#BC78FF" stop-opacity="0.48"/>
<stop offset="1" stop-color="#FF0000" stop-opacity="0.92"/>
</linearGradient>
<linearGradient id="paint9_linear_62_419" x1="70.3976" y1="242.329" x2="155.498" y2="208.918" gradientUnits="userSpaceOnUse">
<stop stop-color="#BC78FF" stop-opacity="0.48"/>
<stop offset="1" stop-color="#FF0000" stop-opacity="0.92"/>
</linearGradient>
<linearGradient id="paint10_linear_62_419" x1="78.0884" y1="235.097" x2="160.72" y2="199.21" gradientUnits="userSpaceOnUse">
<stop stop-color="#BC78FF" stop-opacity="0.48"/>
<stop offset="1" stop-color="#FF0000" stop-opacity="0.92"/>
</linearGradient>
<linearGradient id="paint11_linear_62_419" x1="84.6805" y1="234.494" x2="167.078" y2="198.39" gradientUnits="userSpaceOnUse">
<stop stop-color="#BC78FF" stop-opacity="0.48"/>
<stop offset="1" stop-color="#FF0000" stop-opacity="0.92"/>
</linearGradient>
<linearGradient id="paint12_linear_62_419" x1="92.3713" y1="220.031" x2="167.289" y2="178.251" gradientUnits="userSpaceOnUse">
<stop stop-color="#BC78FF" stop-opacity="0.48"/>
<stop offset="1" stop-color="#FF0000" stop-opacity="0.92"/>
</linearGradient>
<linearGradient id="paint13_linear_62_419" x1="100.062" y1="229.071" x2="180.108" y2="190.932" gradientUnits="userSpaceOnUse">
<stop stop-color="#BC78FF" stop-opacity="0.48"/>
<stop offset="1" stop-color="#FF0000" stop-opacity="0.92"/>
</linearGradient>
<linearGradient id="paint14_linear_62_419" x1="106.654" y1="210.389" x2="173.715" y2="164.68" gradientUnits="userSpaceOnUse">
<stop stop-color="#BC78FF" stop-opacity="0.48"/>
<stop offset="1" stop-color="#FF0000" stop-opacity="0.92"/>
</linearGradient>
<linearGradient id="paint15_linear_62_419" x1="114.345" y1="225.455" x2="192.545" y2="185.89" gradientUnits="userSpaceOnUse">
<stop stop-color="#BC78FF" stop-opacity="0.48"/>
<stop offset="1" stop-color="#FF0000" stop-opacity="0.92"/>
</linearGradient>
<linearGradient id="paint16_linear_62_419" x1="122.036" y1="239.315" x2="206.18" y2="204.903" gradientUnits="userSpaceOnUse">
<stop stop-color="#BC78FF" stop-opacity="0.48"/>
<stop offset="1" stop-color="#FF0000" stop-opacity="0.92"/>
</linearGradient>
<linearGradient id="paint17_linear_62_419" x1="128.628" y1="229.071" x2="208.673" y2="190.932" gradientUnits="userSpaceOnUse">
<stop stop-color="#BC78FF" stop-opacity="0.48"/>
<stop offset="1" stop-color="#FF0000" stop-opacity="0.92"/>
</linearGradient>
<linearGradient id="paint18_linear_62_419" x1="136.319" y1="225.455" x2="214.519" y2="185.89" gradientUnits="userSpaceOnUse">
<stop stop-color="#BC78FF" stop-opacity="0.48"/>
<stop offset="1" stop-color="#FF0000" stop-opacity="0.92"/>
</linearGradient>
<linearGradient id="paint19_linear_62_419" x1="144.009" y1="221.839" x2="220.097" y2="180.805" gradientUnits="userSpaceOnUse">
<stop stop-color="#BC78FF" stop-opacity="0.48"/>
<stop offset="1" stop-color="#FF0000" stop-opacity="0.92"/>
</linearGradient>
<linearGradient id="paint20_linear_62_419" x1="150.602" y1="231.481" x2="231.749" y2="194.263" gradientUnits="userSpaceOnUse">
<stop stop-color="#BC78FF" stop-opacity="0.48"/>
<stop offset="1" stop-color="#FF0000" stop-opacity="0.92"/>
</linearGradient>
<linearGradient id="paint21_linear_62_419" x1="158.292" y1="241.726" x2="243.209" y2="208.118" gradientUnits="userSpaceOnUse">
<stop stop-color="#BC78FF" stop-opacity="0.48"/>
<stop offset="1" stop-color="#FF0000" stop-opacity="0.92"/>
</linearGradient>
<linearGradient id="paint22_linear_62_419" x1="165.983" y1="258.6" x2="254.929" y2="229.882" gradientUnits="userSpaceOnUse">
<stop stop-color="#BC78FF" stop-opacity="0.48"/>
<stop offset="1" stop-color="#FF0000" stop-opacity="0.92"/>
</linearGradient>
<linearGradient id="paint23_linear_62_419" x1="172.575" y1="229.071" x2="252.621" y2="190.932" gradientUnits="userSpaceOnUse">
<stop stop-color="#BC78FF" stop-opacity="0.48"/>
<stop offset="1" stop-color="#FF0000" stop-opacity="0.92"/>
</linearGradient>
<linearGradient id="paint24_linear_62_419" x1="180.266" y1="239.315" x2="264.41" y2="204.903" gradientUnits="userSpaceOnUse">
<stop stop-color="#BC78FF" stop-opacity="0.48"/>
<stop offset="1" stop-color="#FF0000" stop-opacity="0.92"/>
</linearGradient>
<linearGradient id="paint25_linear_62_419" x1="187.957" y1="224.25" x2="265.485" y2="184.2" gradientUnits="userSpaceOnUse">
<stop stop-color="#BC78FF" stop-opacity="0.48"/>
<stop offset="1" stop-color="#FF0000" stop-opacity="0.92"/>
</linearGradient>
<linearGradient id="paint26_linear_62_419" x1="194.549" y1="198.337" x2="246.497" y2="149.31" gradientUnits="userSpaceOnUse">
<stop stop-color="#BC78FF" stop-opacity="0.48"/>
<stop offset="1" stop-color="#FF0000" stop-opacity="0.92"/>
</linearGradient>
<linearGradient id="paint27_linear_62_419" x1="202.24" y1="235.097" x2="284.871" y2="199.21" gradientUnits="userSpaceOnUse">
<stop stop-color="#BC78FF" stop-opacity="0.48"/>
<stop offset="1" stop-color="#FF0000" stop-opacity="0.92"/>
</linearGradient>
<linearGradient id="paint28_linear_62_419" x1="209.931" y1="215.21" x2="281.293" y2="171.433" gradientUnits="userSpaceOnUse">
<stop stop-color="#BC78FF" stop-opacity="0.48"/>
<stop offset="1" stop-color="#FF0000" stop-opacity="0.92"/>
</linearGradient>
<linearGradient id="paint29_linear_62_419" x1="216.523" y1="231.481" x2="297.67" y2="194.263" gradientUnits="userSpaceOnUse">
<stop stop-color="#BC78FF" stop-opacity="0.48"/>
<stop offset="1" stop-color="#FF0000" stop-opacity="0.92"/>
</linearGradient>
<linearGradient id="paint30_linear_62_419" x1="224.213" y1="220.031" x2="299.131" y2="178.251" gradientUnits="userSpaceOnUse">
<stop stop-color="#BC78FF" stop-opacity="0.48"/>
<stop offset="1" stop-color="#FF0000" stop-opacity="0.92"/>
</linearGradient>
<linearGradient id="paint31_linear_62_419" x1="231.904" y1="210.389" x2="298.965" y2="164.68" gradientUnits="userSpaceOnUse">
<stop stop-color="#BC78FF" stop-opacity="0.48"/>
<stop offset="1" stop-color="#FF0000" stop-opacity="0.92"/>
</linearGradient>
<linearGradient id="paint32_linear_62_419" x1="238.496" y1="224.25" x2="316.024" y2="184.2" gradientUnits="userSpaceOnUse">
<stop stop-color="#BC78FF" stop-opacity="0.48"/>
<stop offset="1" stop-color="#FF0000" stop-opacity="0.92"/>
</linearGradient>
<linearGradient id="paint33_linear_62_419" x1="246.187" y1="195.926" x2="294.207" y2="146.83" gradientUnits="userSpaceOnUse">
<stop stop-color="#BC78FF" stop-opacity="0.48"/>
<stop offset="1" stop-color="#FF0000" stop-opacity="0.92"/>
</linearGradient>
<linearGradient id="paint34_linear_62_419" x1="253.878" y1="219.429" x2="328.387" y2="177.399" gradientUnits="userSpaceOnUse">
<stop stop-color="#BC78FF" stop-opacity="0.48"/>
<stop offset="1" stop-color="#FF0000" stop-opacity="0.92"/>
</linearGradient>
<linearGradient id="paint35_linear_62_419" x1="260.47" y1="210.389" x2="327.531" y2="164.68" gradientUnits="userSpaceOnUse">
<stop stop-color="#BC78FF" stop-opacity="0.48"/>
<stop offset="1" stop-color="#FF0000" stop-opacity="0.92"/>
</linearGradient>
<linearGradient id="paint36_linear_62_419" x1="268.161" y1="247.15" x2="354.608" y2="215.251" gradientUnits="userSpaceOnUse">
<stop stop-color="#BC78FF" stop-opacity="0.48"/>
<stop offset="1" stop-color="#FF0000" stop-opacity="0.92"/>
</linearGradient>
<linearGradient id="paint37_linear_62_419" x1="275.852" y1="226.66" x2="354.694" y2="187.576" gradientUnits="userSpaceOnUse">
<stop stop-color="#BC78FF" stop-opacity="0.48"/>
<stop offset="1" stop-color="#FF0000" stop-opacity="0.92"/>
</linearGradient>
<linearGradient id="paint38_linear_62_419" x1="282.444" y1="217.621" x2="355.667" y2="174.841" gradientUnits="userSpaceOnUse">
<stop stop-color="#BC78FF" stop-opacity="0.48"/>
<stop offset="1" stop-color="#FF0000" stop-opacity="0.92"/>
</linearGradient>
<linearGradient id="paint39_linear_62_419" x1="290.134" y1="229.071" x2="370.18" y2="190.932" gradientUnits="userSpaceOnUse">
<stop stop-color="#BC78FF" stop-opacity="0.48"/>
<stop offset="1" stop-color="#FF0000" stop-opacity="0.92"/>
</linearGradient>
<linearGradient id="paint40_linear_62_419" x1="297.825" y1="210.389" x2="364.886" y2="164.68" gradientUnits="userSpaceOnUse">
<stop stop-color="#BC78FF" stop-opacity="0.48"/>
<stop offset="1" stop-color="#FF0000" stop-opacity="0.92"/>
</linearGradient>
<linearGradient id="paint41_linear_62_419" x1="304.417" y1="213.402" x2="374.263" y2="168.886" gradientUnits="userSpaceOnUse">
<stop stop-color="#BC78FF" stop-opacity="0.48"/>
<stop offset="1" stop-color="#FF0000" stop-opacity="0.92"/>
</linearGradient>
<linearGradient id="paint42_linear_62_419" x1="312.108" y1="212.8" x2="381.423" y2="168.041" gradientUnits="userSpaceOnUse">
<stop stop-color="#BC78FF" stop-opacity="0.48"/>
<stop offset="1" stop-color="#FF0000" stop-opacity="0.92"/>
</linearGradient>
<linearGradient id="paint43_linear_62_419" x1="319.799" y1="230.276" x2="400.407" y2="192.6" gradientUnits="userSpaceOnUse">
<stop stop-color="#BC78FF" stop-opacity="0.48"/>
<stop offset="1" stop-color="#FF0000" stop-opacity="0.92"/>
</linearGradient>
<linearGradient id="paint44_linear_62_419" x1="326.391" y1="220.634" x2="401.708" y2="179.103" gradientUnits="userSpaceOnUse">
<stop stop-color="#BC78FF" stop-opacity="0.48"/>
<stop offset="1" stop-color="#FF0000" stop-opacity="0.92"/>
</linearGradient>
<linearGradient id="paint45_linear_62_419" x1="334.082" y1="213.402" x2="403.927" y2="168.886" gradientUnits="userSpaceOnUse">
<stop stop-color="#BC78FF" stop-opacity="0.48"/>
<stop offset="1" stop-color="#FF0000" stop-opacity="0.92"/>
</linearGradient>
<linearGradient id="paint46_linear_62_419" x1="341.773" y1="207.979" x2="406.353" y2="161.371" gradientUnits="userSpaceOnUse">
<stop stop-color="#BC78FF" stop-opacity="0.48"/>
<stop offset="1" stop-color="#FF0000" stop-opacity="0.92"/>
</linearGradient>
<linearGradient id="paint47_linear_62_419" x1="348.365" y1="207.979" x2="412.945" y2="161.371" gradientUnits="userSpaceOnUse">
<stop stop-color="#BC78FF" stop-opacity="0.48"/>
<stop offset="1" stop-color="#FF0000" stop-opacity="0.92"/>
</linearGradient>
<linearGradient id="paint48_linear_62_419" x1="356.056" y1="205.568" x2="417.905" y2="158.141" gradientUnits="userSpaceOnUse">
<stop stop-color="#BC78FF" stop-opacity="0.48"/>
<stop offset="1" stop-color="#FF0000" stop-opacity="0.92"/>
</linearGradient>
<linearGradient id="paint49_linear_62_419" x1="363.746" y1="194.118" x2="408.608" y2="145.194" gradientUnits="userSpaceOnUse">
<stop stop-color="#BC78FF" stop-opacity="0.48"/>
<stop offset="1" stop-color="#FF0000" stop-opacity="0.92"/>
</linearGradient>
</defs>
</svg>
